<?xml version="1.0" encoding="UTF-8"?>
<svg id="Layer_2" data-name="Layer 2" xmlns="http://www.w3.org/2000/svg" viewBox="0 0 24.01 24.01">
  <defs>
    <style>
      .cls-1 {
        fill: none;
      }

      .cls-2 {
        fill: #222;
      }
    </style>
  </defs>
  <g id="Layer_1-2" data-name="Layer 1">
    <g>
      <path class="cls-2" d="M9,17.86h6c.21,0,.39-.07.53-.22.14-.14.22-.32.22-.53s-.07-.39-.22-.53c-.14-.14-.32-.22-.53-.22h-6c-.21,0-.39.07-.53.22-.14.14-.22.32-.22.53s.07.39.22.53c.14.14.32.22.53.22ZM9,13.86h6c.21,0,.39-.07.53-.22.14-.14.22-.32.22-.53s-.07-.39-.22-.53c-.14-.14-.32-.22-.53-.22h-6c-.21,0-.39.07-.53.22-.14.14-.22.32-.22.53s.07.39.22.53c.14.14.32.22.53.22ZM6.31,21.61c-.51,0-.93-.18-1.28-.53s-.53-.78-.53-1.28V4.42c0-.51.18-.93.53-1.28s.78-.53,1.28-.53h7.19c.24,0,.47.05.7.14.22.09.42.22.58.39l4.2,4.2c.16.16.29.36.39.58.09.22.14.45.14.7v11.19c0,.51-.17.93-.52,1.28s-.78.53-1.28.53H6.31ZM13.5,7.71v-3.6h-7.19c-.08,0-.15.03-.21.1-.06.06-.1.13-.1.21v15.38c0,.08.03.15.1.21.06.06.13.1.21.1h11.38c.08,0,.15-.03.21-.1.06-.06.1-.13.1-.21v-11.19h-3.6c-.26,0-.47-.09-.65-.26-.17-.17-.26-.39-.26-.65ZM6,4.11v4.5-4.5,16V4.11Z"/>
      <rect class="cls-1" width="24.01" height="24.01"/>
    </g>
  </g>
</svg>