<?xml version="1.0" encoding="UTF-8"?>
<svg id="Layer_2" data-name="Layer 2" xmlns="http://www.w3.org/2000/svg" viewBox="0 0 24.01 24.01">
  <defs>
    <style>
      .cls-1 {
        fill: none;
      }

      .cls-2 {
        fill: #222;
      }
    </style>
  </defs>
  <g id="Layer_1-2" data-name="Layer 1">
    <g>
      <path class="cls-2" d="M1.8,17.2c0-.52.13-.98.4-1.38s.62-.72,1.07-.94c.95-.46,1.91-.82,2.87-1.08.96-.25,2.02-.38,3.17-.38,1.15,0,2.21.13,3.17.38.96.25,1.92.61,2.87,1.08.44.22.8.54,1.07.94s.4.86.4,1.38v.7c0,.4-.15.76-.44,1.06s-.65.46-1.08.46H3.32c-.42,0-.78-.15-1.08-.44-.3-.3-.44-.65-.44-1.08,0,0,0-.7,0-.7ZM20.69,19.42h-2.27c.13-.23.22-.47.29-.73s.1-.52.1-.79v-.83c0-.66-.16-1.28-.48-1.88-.32-.59-.78-1.1-1.37-1.53.67.1,1.31.25,1.91.46.6.21,1.18.46,1.73.74.52.28.92.6,1.2.97.28.37.42.78.42,1.23v.83c0,.42-.15.78-.44,1.08-.3.3-.65.44-1.08.44ZM9.3,11.81c-.96,0-1.79-.34-2.47-1.03-.69-.69-1.03-1.51-1.03-2.47,0-.96.34-1.79,1.03-2.47.69-.69,1.51-1.03,2.47-1.03s1.79.34,2.47,1.03c.69.69,1.03,1.51,1.03,2.47s-.34,1.79-1.03,2.47c-.69.69-1.51,1.03-2.47,1.03ZM17.94,8.31c0,.96-.34,1.79-1.03,2.47-.69.69-1.51,1.03-2.47,1.03-.11,0-.26-.01-.43-.04-.17-.03-.32-.05-.43-.08.39-.47.7-1,.91-1.58.21-.58.32-1.18.32-1.8s-.11-1.22-.32-1.79c-.22-.57-.52-1.1-.9-1.58.14-.05.29-.08.43-.1.14-.02.29-.02.43-.02.96,0,1.79.34,2.47,1.03.69.69,1.03,1.51,1.03,2.47ZM3.3,17.92h12v-.72c0-.21-.05-.39-.16-.56-.1-.16-.27-.31-.5-.43-.82-.42-1.67-.75-2.54-.96-.87-.22-1.81-.33-2.8-.33s-1.93.11-2.8.33c-.87.22-1.72.54-2.54.96-.23.12-.39.26-.5.43-.1.16-.16.35-.16.56,0,0,0,.72,0,.72ZM9.3,10.31c.55,0,1.02-.2,1.41-.59.39-.39.59-.86.59-1.41,0-.55-.2-1.02-.59-1.41-.39-.39-.86-.59-1.41-.59s-1.02.2-1.41.59c-.39.39-.59.86-.59,1.41s.2,1.02.59,1.41c.39.39.86.59,1.41.59Z"/>
      <rect class="cls-1" width="24.01" height="24.01"/>
    </g>
  </g>
</svg>