<?xml version="1.0" encoding="UTF-8"?>
<svg id="Layer_2" data-name="Layer 2" xmlns="http://www.w3.org/2000/svg" viewBox="0 0 24.01 24.01">
  <defs>
    <style>
      .cls-1 {
        fill: none;
      }

      .cls-2 {
        fill: #222;
      }
    </style>
  </defs>
  <g id="Layer_1-2" data-name="Layer 1">
    <g>
      <path class="cls-2" d="M3.5,16.81V7.42c0-.5.18-.92.54-1.28.36-.35.8-.53,1.3-.53h13.31c.51,0,.94.18,1.3.53.36.35.54.78.54,1.28v9.38c0,.5-.18.92-.54,1.28-.36.35-.8.53-1.3.53H5.35c-.51,0-.94-.18-1.3-.53-.36-.35-.54-.78-.54-1.28ZM10.14,11.36h8.87v-3.94c0-.08-.04-.15-.11-.21-.07-.06-.15-.1-.24-.1h-8.52v4.25ZM15.32,17.11h3.33c.09,0,.17-.03.24-.1.07-.06.11-.13.11-.21v-3.94h-3.68v4.25ZM10.14,17.11h3.69v-4.25h-3.69v4.25ZM5.35,17.11h3.29V7.11h-3.29c-.09,0-.17.03-.24.1-.07.06-.11.13-.11.21v9.38c0,.08.04.15.11.21.07.06.15.1.24.1Z"/>
      <rect class="cls-1" width="24.01" height="24.01"/>
    </g>
  </g>
</svg>