<?xml version="1.0" encoding="UTF-8"?>
<svg id="Layer_2" data-name="Layer 2" xmlns="http://www.w3.org/2000/svg" viewBox="0 0 24.01 24.01">
  <defs>
    <style>
      .cls-1 {
        fill: none;
      }

      .cls-2 {
        fill: #222;
      }
    </style>
  </defs>
  <g id="Layer_1-2" data-name="Layer 1">
    <g>
      <path class="cls-2" d="M4.61,11.11l2.07-2.07c.14-.14.21-.31.21-.52,0-.21-.07-.39-.21-.53-.14-.14-.32-.22-.53-.22s-.38.07-.53.22l-2.49,2.49c-.18.18-.27.39-.27.63s.09.45.27.63l2.49,2.49c.14.14.31.21.52.21.21,0,.39-.07.53-.21.14-.14.22-.32.22-.53s-.07-.38-.22-.53l-2.07-2.07ZM19.4,11.11l-2.07,2.07c-.14.14-.21.31-.21.52,0,.21.07.39.21.53.14.14.32.22.53.22s.38-.07.53-.22l2.49-2.49c.18-.18.27-.39.27-.63s-.09-.45-.27-.63l-2.49-2.49c-.14-.14-.31-.21-.52-.21-.21,0-.39.07-.53.21-.14.14-.22.32-.22.53s.07.38.22.53l2.07,2.07ZM2.5,6.5v-1.08c0-.51.18-.93.53-1.28s.78-.53,1.28-.53h15.38c.51,0,.93.18,1.28.53s.53.78.53,1.28v1.08c0,.21-.07.39-.22.53-.14.14-.32.22-.53.22s-.39-.07-.53-.22c-.14-.14-.22-.32-.22-.53v-1.08c0-.09-.03-.16-.09-.22-.06-.06-.13-.09-.22-.09H4.31c-.09,0-.16.03-.22.09-.06.06-.09.13-.09.22v1.08c0,.21-.07.39-.22.53-.14.14-.32.22-.53.22s-.39-.07-.53-.22c-.14-.14-.22-.32-.22-.53ZM9.41,20.61c-.26,0-.47-.09-.65-.26-.17-.17-.26-.39-.26-.65v-1.1h-4.19c-.51,0-.93-.18-1.28-.53s-.53-.78-.53-1.28v-1.06c0-.21.07-.39.22-.53.14-.14.32-.21.53-.21.21,0,.39.07.53.22.14.14.22.32.22.53v1.05c0,.09.03.16.09.22s.13.09.22.09h15.38c.09,0,.16-.03.22-.09s.09-.13.09-.22v-1.06c0-.21.07-.39.22-.53.14-.14.32-.21.53-.21s.39.07.53.22c.14.14.22.32.22.53v1.05c0,.51-.18.93-.53,1.28s-.78.53-1.28.53h-4.19v1.1c0,.26-.09.47-.26.65-.17.17-.39.26-.65.26h-5.19Z"/>
      <rect class="cls-1" width="24.01" height="24.01"/>
    </g>
  </g>
</svg>