<?xml version="1.0" encoding="UTF-8"?>
<svg id="Layer_2" data-name="Layer 2" xmlns="http://www.w3.org/2000/svg" viewBox="0 0 24.01 24.01">
  <defs>
    <style>
      .cls-1 {
        fill: none;
      }

      .cls-2 {
        fill: #222;
      }
    </style>
  </defs>
  <g id="Layer_1-2" data-name="Layer 1">
    <g>
      <path class="cls-2" d="M5.67,16.45l3.72-3.72c.15-.15.32-.22.53-.22.2,0,.38.08.53.24.14.15.21.33.21.53,0,.2-.07.38-.21.53l-4.12,4.13c-.18.18-.39.27-.63.27s-.45-.09-.63-.27l-2.04-2.04c-.14-.14-.21-.31-.2-.52,0-.21.07-.38.21-.52.14-.14.31-.21.52-.21.21,0,.38.07.52.21,0,0,1.6,1.61,1.6,1.61ZM5.67,8.84l3.72-3.72c.15-.15.32-.22.53-.22.2,0,.38.08.53.24.14.15.21.33.21.53,0,.2-.07.38-.21.53l-4.12,4.13c-.18.18-.39.27-.63.27s-.45-.09-.63-.27l-2.04-2.04c-.14-.14-.21-.31-.2-.52,0-.21.07-.38.21-.52.14-.14.31-.21.52-.21s.38.07.52.21c0,0,1.6,1.61,1.6,1.61ZM13.76,16.67c-.21,0-.39-.07-.53-.22-.14-.14-.22-.32-.22-.53s.07-.39.22-.53c.14-.14.32-.22.53-.22h7c.21,0,.39.07.53.22.14.14.22.32.22.53,0,.21-.07.39-.22.53-.14.14-.32.22-.53.22h-7ZM13.76,9.06c-.21,0-.39-.07-.53-.22-.14-.14-.22-.32-.22-.53s.07-.39.22-.53c.14-.14.32-.22.53-.22h7c.21,0,.39.07.53.22.14.14.22.32.22.53,0,.21-.07.39-.22.53-.14.14-.32.22-.53.22h-7Z"/>
      <rect class="cls-1" width="24.01" height="24.01"/>
    </g>
  </g>
</svg>