<?xml version="1.0" encoding="UTF-8"?>
<svg id="Layer_2" data-name="Layer 2" xmlns="http://www.w3.org/2000/svg" viewBox="0 0 24.01 24.01">
  <defs>
    <style>
      .cls-1 {
        fill: none;
      }

      .cls-2 {
        fill: #222;
      }
    </style>
  </defs>
  <g id="Layer_1-2" data-name="Layer 1">
    <g>
      <path class="cls-2" d="M10.9,21.61c-.34,0-.64-.11-.88-.34-.25-.23-.4-.5-.45-.84l-.24-1.87c-.27-.09-.54-.22-.82-.38-.28-.16-.53-.33-.75-.52l-1.73.74c-.31.14-.63.15-.95.04-.32-.11-.56-.31-.74-.61l-1.13-1.95c-.18-.29-.23-.6-.15-.93.07-.33.24-.6.51-.81l1.5-1.13c-.02-.15-.04-.3-.05-.45,0-.15-.01-.3-.01-.45s0-.29.01-.43c0-.15.03-.31.05-.48l-1.5-1.13c-.27-.21-.44-.48-.51-.82-.07-.33-.02-.64.16-.94l1.12-1.93c.18-.29.42-.49.74-.6.32-.11.63-.1.95.04l1.72.73c.24-.19.5-.37.77-.52.27-.16.54-.29.81-.38l.25-1.87c.05-.33.2-.61.45-.84.25-.23.54-.34.88-.34h2.22c.34,0,.64.11.88.34.25.23.4.5.45.84l.24,1.88c.3.11.57.24.81.38.24.15.49.32.74.51l1.77-.73c.31-.14.63-.15.95-.04.32.11.56.32.74.6l1.12,1.93c.18.29.23.6.15.93-.07.33-.24.6-.51.81l-1.54,1.15c.04.16.06.31.06.45,0,.14,0,.28,0,.42s0,.27,0,.41c0,.14-.03.3-.07.48l1.51,1.13c.27.21.44.48.52.81.08.33.03.64-.15.93l-1.13,1.94c-.18.29-.42.5-.74.61-.32.11-.64.1-.95-.04l-1.71-.74c-.25.2-.5.37-.76.52-.26.15-.52.28-.79.37l-.24,1.88c-.05.33-.2.61-.45.84-.25.23-.54.34-.88.34h-2.22ZM11,20.11h1.97l.36-2.68c.51-.13.98-.32,1.4-.57.42-.25.83-.56,1.22-.95l2.48,1.04.98-1.7-2.17-1.63c.08-.26.14-.51.17-.76.03-.25.05-.5.05-.75s-.02-.51-.05-.75c-.03-.24-.09-.49-.17-.74l2.19-1.65-.98-1.7-2.51,1.06c-.33-.36-.74-.67-1.2-.95-.47-.27-.94-.47-1.42-.58l-.32-2.68h-1.98l-.33,2.67c-.51.12-.98.31-1.41.55-.43.25-.84.57-1.24.96l-2.48-1.03-.98,1.7,2.16,1.61c-.08.24-.14.48-.18.74-.03.26-.05.53-.05.81,0,.26.02.52.05.77s.09.5.17.74l-2.15,1.63.98,1.7,2.48-1.05c.38.39.79.71,1.22.96.43.25.91.44,1.43.57l.33,2.67ZM12.02,15.11c.83,0,1.54-.29,2.12-.88.58-.58.88-1.29.88-2.12s-.29-1.54-.88-2.12-1.29-.88-2.12-.88-1.55.29-2.13.88c-.58.58-.87,1.29-.87,2.12s.29,1.54.87,2.12c.58.58,1.29.88,2.13.88Z"/>
      <rect class="cls-1" width="24.01" height="24.01"/>
    </g>
  </g>
</svg>